<svg width="88" height="32" viewBox="0 0 88 32" fill="none" xmlns="http://www.w3.org/2000/svg">
<rect width="88" height="32" rx="16" fill="#E6E8FC"/>
<path d="M28.5098 15.4336V16.7373H16.4395V15.4336H19.252V13.7563C18.2485 13.3315 17.6846 12.665 17.6846 11.8008C17.6846 10.2114 19.5376 9.28125 22.46 9.28125C25.375 9.28125 27.228 10.2114 27.2354 11.8008C27.228 12.6724 26.6567 13.3389 25.6533 13.7563V15.4336H28.5098ZM17.8457 19.9014C17.8457 18.3779 19.5669 17.5283 22.46 17.543C25.3091 17.5283 27.0376 18.3779 27.0449 19.9014C27.0376 21.4395 25.3091 22.2744 22.46 22.2744C19.5669 22.2744 17.8457 21.4395 17.8457 19.9014ZM19.3838 11.8008C19.3691 12.6064 20.5044 13.0386 22.46 13.0312C24.4082 13.0386 25.5508 12.6064 25.5508 11.8008C25.5508 10.9878 24.4082 10.5337 22.46 10.541C20.5044 10.5337 19.3691 10.9878 19.3838 11.8008ZM19.501 19.9014C19.4937 20.6484 20.5337 21.0513 22.46 21.0439C24.3569 21.0513 25.4043 20.6484 25.4189 19.9014C25.4043 19.1616 24.3569 18.7808 22.46 18.7734C20.5337 18.7808 19.4937 19.1616 19.501 19.9014ZM20.8926 15.4336H24.0273V14.1738C23.5513 14.2397 23.0239 14.2764 22.46 14.2764C21.896 14.2764 21.3687 14.2397 20.8926 14.1738V15.4336ZM33.0215 10.0283C34.8086 10.0283 36.1343 11.5225 36.3687 13.9395H38.8955V9.06152H40.5068V22.3184H38.8955V15.2578H36.3833C36.2075 17.814 34.8599 19.3887 33.0215 19.3887C31.0293 19.3887 29.6157 17.5796 29.623 14.7012C29.6157 11.8447 31.0293 10.0283 33.0215 10.0283ZM31.1904 14.7012C31.1831 16.7373 31.9302 17.9165 33.0215 17.9238C34.1201 17.9165 34.8599 16.7373 34.8672 14.7012C34.8599 12.6797 34.1201 11.4932 33.0215 11.4932C31.9302 11.4932 31.1831 12.6797 31.1904 14.7012ZM50.6582 12.2402C50.6436 14.606 51.8301 16.9937 53.8809 17.9824L52.8848 19.2861C51.4492 18.561 50.4165 17.1621 49.8525 15.4775C49.2739 17.2793 48.1899 18.7734 46.6738 19.5352L45.6777 18.2314C47.8091 17.2207 49.0249 14.6865 49.0322 12.2402V10.1309H50.6582V12.2402ZM54.6719 22.3037V9.06152H56.2979V14.2471H58.334V15.6387H56.2979V22.3037H54.6719ZM69.9795 9.07617V18.7441H68.3535V13.8955H66.0098V12.5771H68.3535V9.07617H69.9795ZM58.8613 15.8877C60.9707 15.1919 62.0986 13.4634 62.0986 11.6982V11.3467H59.3447V10.0283H66.4932V11.3467H63.7539V11.7129C63.7539 13.3022 64.8232 14.9502 66.874 15.624L66.0537 16.9277C64.5742 16.4224 63.5269 15.4116 62.9482 14.1592C62.3696 15.5508 61.2637 16.6641 59.6963 17.2061L58.8613 15.8877ZM61.293 22.04V17.8945H62.9189V20.7217H70.3164V22.04H61.293Z" fill="#667EEA"/>
</svg>
