<svg width="99" height="32" viewBox="0 0 99 32" fill="none" xmlns="http://www.w3.org/2000/svg">
<rect width="99" height="32" rx="16" fill="#E6F4EA"/>
<path d="M27.5391 19.374V20.707H15.4395V19.374H20.6543V16.7959H16.7725V9.94043H18.3984V12.1084H24.5361V9.94043H26.1621V16.7959H22.2656V19.374H27.5391ZM18.3984 15.4775H24.5361V13.4121H18.3984V15.4775ZM39.2139 10.2773V11.5518C39.1992 13.1924 39.1992 15.0381 38.6865 17.8066L37.0459 17.6309C37.5586 15.0527 37.5586 13.1704 37.5732 11.5811H29.6631V10.2773H39.2139ZM40.4736 19.2568V20.5898H28.4033V19.2568H32.8564V14.6572H34.4678V19.2568H40.4736ZM46.2598 12.2402C46.2598 14.7012 47.4316 17.1182 49.541 18.041L48.5596 19.3447C47.0581 18.6123 46.0034 17.2061 45.4395 15.4775C44.8608 17.3013 43.7842 18.8174 42.2607 19.5938L41.2354 18.2754C43.3887 17.2646 44.5898 14.7158 44.6045 12.2402V10.1309H46.2598V12.2402ZM52.4707 9.06152V22.3184H50.8594V14.6572H48.0762V13.3389H50.8594V9.06152H52.4707ZM70.1367 10.834V12.167H68.335V13.6758H70.1367V15.0234H68.335V16.8398H66.709V9.06152H68.335V10.834H70.1367ZM61.6113 9.82324C63.6475 9.80859 65.1709 11.1123 65.1855 12.9873C65.1709 14.8477 63.6475 16.1514 61.6113 16.166C59.5605 16.1514 58.0225 14.8477 58.0371 12.9873C58.0225 11.1123 59.5605 9.80859 61.6113 9.82324ZM61.6113 11.1855C60.4688 11.1855 59.6191 11.9033 59.6338 12.9873C59.6191 14.0859 60.4688 14.7744 61.6113 14.7891C62.7393 14.7744 63.5889 14.0859 63.5889 12.9873C63.5889 11.9033 62.7393 11.1855 61.6113 11.1855ZM64.0283 17.1475C66.7383 17.1475 68.4521 18.1143 68.4668 19.7256C68.4521 21.3369 66.7383 22.2891 64.0283 22.2891C61.2891 22.2891 59.5459 21.3369 59.5459 19.7256C59.5459 18.1143 61.2891 17.1475 64.0283 17.1475ZM64.0283 18.4512C62.2119 18.4512 61.1719 18.8906 61.1719 19.7256C61.1719 20.5605 62.2119 20.9854 64.0283 20.9854C65.8447 20.9854 66.8555 20.5605 66.8555 19.7256C66.8555 18.8906 65.8447 18.4512 64.0283 18.4512ZM75.791 10.9512C75.791 12.6943 76.875 14.335 78.9844 14.9941L78.1787 16.2832C76.6479 15.7705 75.5566 14.7671 74.9707 13.4707C74.3628 14.8623 73.2568 15.9683 71.6895 16.5029L70.8691 15.2285C73.0078 14.4961 74.1064 12.7529 74.1064 10.9512V9.69141H75.791V10.9512ZM81.8848 17.5869V22.3037H80.2441V18.8906H72.8467V17.5869H81.8848ZM81.8848 9.06152V16.9863H80.2441V9.06152H81.8848Z" fill="#218C5A"/>
</svg>
