<svg width="88" height="32" viewBox="0 0 88 32" fill="none" xmlns="http://www.w3.org/2000/svg">
<rect width="88" height="32" rx="16" fill="#FFF7D6"/>
<path d="M21.1709 12.2402C21.1562 14.5986 22.3428 17.001 24.3936 17.9824L23.3975 19.2861C21.9619 18.561 20.9292 17.1621 20.3652 15.4775C19.7866 17.2793 18.7026 18.7734 17.1865 19.5352L16.1904 18.2314C18.3145 17.2207 19.5303 14.6865 19.5449 12.2402V10.1309H21.1709V12.2402ZM26.8105 9.06152V14.2471H28.8467V15.6387H26.8105V22.3037H25.1846V9.06152H26.8105ZM40.7705 9.06152V22.3037H39.2031V15.6094H37.7383V21.6299H36.2148V9.31055H37.7383V14.2764H39.2031V9.06152H40.7705ZM31.6152 10.585V17.5723C32.7578 17.5503 34.0103 17.4551 35.3945 17.1768L35.5557 18.5977C33.7686 18.9199 32.2598 19.0078 30.8535 19.0078H29.9746V10.585H31.6152ZM57.0156 9.06152V16.9277H55.3896V13.6904H53.1338V12.3574H55.3896V9.06152H57.0156ZM52.5332 17.2646C55.3457 17.2646 57.0596 18.1875 57.0596 19.7842C57.0596 21.3809 55.3457 22.3037 52.5332 22.3037C49.7354 22.3037 48.0215 21.3809 48.0361 19.7842C48.0215 18.1875 49.7354 17.2646 52.5332 17.2646ZM52.5332 18.5098C50.6875 18.5098 49.6475 18.9492 49.6475 19.7842C49.6475 20.6045 50.6875 21.0439 52.5332 21.0439C54.3789 21.0439 55.4336 20.6045 55.4336 19.7842C55.4336 18.9492 54.3789 18.5098 52.5332 18.5098ZM50.79 11.332C50.79 12.9434 51.8594 14.5693 53.9102 15.2578L53.0898 16.5469C51.6177 16.0488 50.5703 15.0381 49.999 13.793C49.4131 15.2065 48.3071 16.3345 46.7324 16.8984L45.8828 15.6094C48.0068 14.877 49.1348 13.0898 49.1348 11.3467V11.2441H46.3809V9.92578H53.5293V11.2441H50.79V11.332ZM62.9775 12.0352C62.9775 13.4414 63.8271 14.8184 65.4971 15.3896L64.7646 16.6201C63.5488 16.1733 62.7139 15.3457 62.2451 14.3203C61.7764 15.4409 60.9341 16.3491 59.6816 16.8398L58.9199 15.6387C60.5898 14.9795 61.4248 13.5439 61.4395 12.0352V11.9326H59.2568V10.6582H61.4395V9.20801H62.9775V10.6582H65.1309V11.9326H62.9775V12.0352ZM70.2139 9.07617V17.1768H68.6611V13.793H67.3867V17.1182H65.8486V9.2959H67.3867V12.4746H68.6611V9.07617H70.2139ZM70.2139 17.7773V22.3037H68.5879V19.0957H61.1465V17.7773H70.2139Z" fill="#B89A00"/>
</svg>
