<svg width="99" height="32" viewBox="0 0 99 32" fill="none" xmlns="http://www.w3.org/2000/svg">
<rect width="99" height="32" rx="16" fill="#E6F4EA"/>
<path d="M19.1162 9.64746C20.8301 9.64014 22.1777 10.6289 22.5073 12.0791H24.9023V9.06152H26.5283V16.166H24.9023V13.3975H22.522C22.207 14.8843 20.8447 15.8877 19.1162 15.8877C17.0874 15.8877 15.6152 14.584 15.6152 12.7529C15.6152 10.9438 17.0874 9.64014 19.1162 9.64746ZM17.168 12.7529C17.168 13.8149 17.9736 14.5181 19.1162 14.5107C20.2295 14.5181 21.0278 13.8149 21.0352 12.7529C21.0278 11.6909 20.2295 11.0024 19.1162 11.0098C17.9736 11.0024 17.168 11.6909 17.168 12.7529ZM17.7979 22.1426V16.7812H19.4092V18.1875H24.9023V16.7812H26.5283V22.1426H17.7979ZM19.4092 20.8242H24.9023V19.4473H19.4092V20.8242ZM40.4883 16.5615V17.8799H35.2148V22.2891H33.6035V17.8799H28.3887V16.5615H40.4883ZM29.8682 15.0088V9.73535H39.0088V15.0088H29.8682ZM31.4648 13.7344H37.3828V11.0391H31.4648V13.7344ZM56.3525 9.06152V22.3037H54.7852V15.5215H53.3789V21.6592H51.8408V9.2959H53.3789V14.1738H54.7852V9.06152H56.3525ZM45.3369 18.8906V10.4971H50.5371V18.8906H45.3369ZM46.8604 17.6016H49.0137V11.7861H46.8604V17.6016ZM68.584 13.3389V14.6572H59.3848V9.69141H61.0107V13.3389H68.584ZM57.8906 17.6016V16.2832H69.9609V17.6016H67.0605V22.3037H65.4199V17.6016H62.4316V22.3037H60.8057V17.6016H57.8906ZM81.9434 9.06152V15.7119H80.3174V13.1338H77.9297C77.6074 14.5767 76.2598 15.5288 74.5312 15.5361C72.5244 15.5288 71.0303 14.2764 71.0303 12.4746C71.0303 10.7095 72.5244 9.47168 74.5312 9.47168C76.2524 9.47168 77.5928 10.4092 77.9224 11.8154H80.3174V9.06152H81.9434ZM72.583 12.4746C72.583 13.5366 73.396 14.2031 74.5312 14.2031C75.6299 14.2031 76.4429 13.5366 76.4502 12.4746C76.4429 11.4639 75.6299 10.79 74.5312 10.79C73.396 10.79 72.583 11.4639 72.583 12.4746ZM73.2129 17.6162V16.3564H81.9434V19.7842H74.8535V20.8535H82.3682V22.1426H73.2275V18.583H80.3174V17.6162H73.2129Z" fill="#218C5A"/>
</svg>
