<svg width="60" height="60" viewBox="0 0 60 60" fill="none" xmlns="http://www.w3.org/2000/svg">
<rect width="60" height="60" rx="10" fill="#F4B378"/>
<path d="M29.6953 44.3906C23.4844 44.3906 19.0312 40.9727 18.9141 36.0312H24.8516C24.9492 38.1406 27 39.5273 29.7344 39.5469C32.5469 39.5273 34.5586 37.9648 34.5391 35.6797C34.5586 33.375 32.5078 31.7539 29.1875 31.7344H26.5703V27.3984H29.1875C31.9805 27.3984 33.9336 25.875 33.9141 23.6484C33.9336 21.4805 32.2734 19.9961 29.7734 20.0156C27.2734 19.9961 25.2227 21.4023 25.125 23.5703H19.5C19.5977 18.707 23.9727 15.3281 29.7734 15.3281C35.6719 15.3281 39.5977 18.8242 39.5781 23.2969C39.5977 26.4609 37.3906 28.707 34.2266 29.2734V29.5078C38.3867 30.0156 40.6719 32.5352 40.6328 36.0703C40.6719 40.9141 36.082 44.3906 29.6953 44.3906Z" fill="white" fill-opacity="0.95"/>
</svg>
