<svg width="98" height="32" viewBox="0 0 98 32" fill="none" xmlns="http://www.w3.org/2000/svg">
<rect x="0.0439453" width="97.5" height="31.5" rx="15.75" fill="#D5FFE4"/>
<path d="M27.3535 9.57324V10.6719C27.3608 11.7852 27.3608 13.0669 27.0532 14.7441H28.833V16.0771H16.7334V14.7441H25.3979C25.7056 13.1475 25.7275 11.9683 25.7275 10.8916H18.2275V9.57324H27.3535ZM18.3008 21.7754V17.3369H19.9121V20.457H27.7344V21.7754H18.3008ZM41.7822 16.3115V17.6299H36.5088V22.0391H34.8975V17.6299H29.6826V16.3115H41.7822ZM31.1621 14.7588V9.48535H40.3027V14.7588H31.1621ZM32.7588 13.4844H38.6768V10.7891H32.7588V13.4844ZM50.9961 9.64648L47.583 22.3467H45.9424L49.3701 9.64648H50.9961ZM65.7764 9.57324V10.6719C65.7837 11.7852 65.7837 13.0669 65.4761 14.7441H67.2559V16.0771H55.1562V14.7441H63.8208C64.1284 13.1475 64.1504 11.9683 64.1504 10.8916H56.6504V9.57324H65.7764ZM56.7236 21.7754V17.3369H58.335V20.457H66.1572V21.7754H56.7236ZM73.9355 10.2471V11.5508H70.1562V13.7188H73.7012V14.9932H70.1562V17.5713C71.7969 17.5566 72.9321 17.498 74.2725 17.293L74.4043 18.626C72.8589 18.8896 71.5625 18.9409 69.4971 18.9336H68.6035V10.2471H73.9355ZM75.0781 21.4092V9.0459H76.6162V14.0117H77.9785V8.81152H79.5459V22.0537H77.9785V15.3301H76.6162V21.4092H75.0781Z" fill="#22C55E"/>
</svg>
