<svg width="97" height="32" viewBox="0 0 97 32" fill="none" xmlns="http://www.w3.org/2000/svg">
<path d="M0 15.6863C0 7.02298 7.02298 0 15.6863 0H81.3137C89.977 0 97 7.02299 97 15.6863V15.6863C97 24.6961 89.6961 32 80.6863 32H16.3137C7.3039 32 0 24.6961 0 15.6863V15.6863Z" fill="#FFDEDE"/>
<path d="M28.5098 15.7266V17.0303H16.4395V15.7266H21.6396V14.4521H18.0068V9.38379H19.6182V10.7021H25.3311V9.38379H26.9424V14.4521H23.2803V15.7266H28.5098ZM17.7725 19.374V18.085H27.0303V22.3037H25.4043V19.374H17.7725ZM19.6182 13.1484H25.3311V11.918H19.6182V13.1484ZM34.3984 12.8262C34.3984 14.9941 35.6729 17.2793 37.8115 18.1729L36.918 19.4619C35.3506 18.7808 34.208 17.3965 33.6001 15.7119C32.9922 17.5283 31.8276 19.0518 30.2822 19.7842L29.3447 18.5098C31.4321 17.543 32.7358 15.0747 32.7432 12.8262V11.7129H29.8281V10.3652H37.2988V11.7129H34.3984V12.8262ZM38.7783 22.3037V9.06152H40.4189V22.3037H38.7783ZM50.7021 9.89648L47.2891 22.5967H45.6484L49.0762 9.89648H50.7021ZM66.2734 10.4385V11.7275H55.4629V10.4385H60.0771V9.03223H61.6885V10.4385H66.2734ZM54.8623 18.8467V17.5283H66.9619V18.8467H64.0322V22.3184H62.3916V18.8467H59.418V22.3184H57.792V18.8467H54.8623ZM56.4004 14.5693C56.4004 13.1265 58.085 12.3354 60.8828 12.3281C63.6807 12.3354 65.3652 13.1265 65.3652 14.5693C65.3652 16.0049 63.6807 16.8105 60.8828 16.8105C58.085 16.8105 56.4004 16.0049 56.4004 14.5693ZM58.0996 14.5693C58.0923 15.2285 59.0518 15.5728 60.8828 15.5654C62.7065 15.5728 63.6733 15.2285 63.6807 14.5693C63.6733 13.8955 62.7065 13.5659 60.8828 13.5586C59.0518 13.5659 58.0923 13.8955 58.0996 14.5693ZM78.1973 9.06152V14.2324H80.1602V15.5947H78.1973V22.2744H76.5713V9.06152H78.1973ZM67.7529 18.6562C70.9756 17.0449 72.7188 14.8037 73.041 11.7861H68.4707V10.4385H74.6963C74.689 14.3276 73.0776 17.748 68.6758 19.916L67.7529 18.6562Z" fill="#EF4444"/>
</svg>
