<svg width="98" height="32" viewBox="0 0 98 32" fill="none" xmlns="http://www.w3.org/2000/svg">
<path d="M0.499512 15.4412C0.499512 6.91325 7.41276 0 15.9407 0H82.4895C91.0174 0 97.9307 6.91325 97.9307 15.4412C97.9307 24.3102 90.7409 31.5 81.8719 31.5H16.5583C7.6893 31.5 0.499512 24.3102 0.499512 15.4412Z" fill="#FFDEDE"/>
<path d="M29.2251 15.4766V16.7803H17.1548V15.4766H22.355V14.2021H18.7222V9.13379H20.3335V10.4521H26.0464V9.13379H27.6577V14.2021H23.9956V15.4766H29.2251ZM18.4878 19.124V17.835H27.7456V22.0537H26.1196V19.124H18.4878ZM20.3335 12.8984H26.0464V11.668H20.3335V12.8984ZM35.1138 12.5762C35.1138 14.7441 36.3882 17.0293 38.5269 17.9229L37.6333 19.2119C36.0659 18.5308 34.9233 17.1465 34.3154 15.4619C33.7075 17.2783 32.543 18.8018 30.9976 19.5342L30.0601 18.2598C32.1475 17.293 33.4512 14.8247 33.4585 12.5762V11.4629H30.5435V10.1152H38.0142V11.4629H35.1138V12.5762ZM39.4937 22.0537V8.81152H41.1343V22.0537H39.4937ZM51.4175 9.64648L48.0044 22.3467H46.3638L49.7915 9.64648H51.4175ZM66.9888 10.1885V11.4775H56.1782V10.1885H60.7925V8.78223H62.4038V10.1885H66.9888ZM55.5776 18.5967V17.2783H67.6772V18.5967H64.7476V22.0684H63.1069V18.5967H60.1333V22.0684H58.5073V18.5967H55.5776ZM57.1157 14.3193C57.1157 12.8765 58.8003 12.0854 61.5981 12.0781C64.396 12.0854 66.0806 12.8765 66.0806 14.3193C66.0806 15.7549 64.396 16.5605 61.5981 16.5605C58.8003 16.5605 57.1157 15.7549 57.1157 14.3193ZM58.8149 14.3193C58.8076 14.9785 59.7671 15.3228 61.5981 15.3154C63.4219 15.3228 64.3887 14.9785 64.396 14.3193C64.3887 13.6455 63.4219 13.3159 61.5981 13.3086C59.7671 13.3159 58.8076 13.6455 58.8149 14.3193ZM78.9126 8.81152V13.9824H80.8755V15.3447H78.9126V22.0244H77.2866V8.81152H78.9126ZM68.4683 18.4062C71.6909 16.7949 73.4341 14.5537 73.7563 11.5361H69.186V10.1885H75.4116C75.4043 14.0776 73.793 17.498 69.3911 19.666L68.4683 18.4062Z" fill="#EF4444"/>
</svg>
