<svg width="118" height="32" viewBox="0 0 118 32" fill="none" xmlns="http://www.w3.org/2000/svg">
<rect x="0.75" y="0.449219" width="116.917" height="31.5" rx="15.75" fill="#FFEED0"/>
<path d="M17.2388 16.8047V18.3281H23.1128V16.8047H24.7241V22.3418H15.6421V16.8047H17.2388ZM14.1479 15.8232V14.5195H22.8345C23.1128 13.1206 23.1421 12.0659 23.1421 11.1357H15.6421V9.83203H24.7681V10.8574C24.7754 11.8682 24.7754 12.9668 24.4458 14.5195H26.2476V15.8232H14.1479ZM17.2388 21.0234H23.1128V19.5879H17.2388V21.0234ZM30.73 10.2275C31.9238 10.2275 32.9126 10.894 33.5059 12.0586H36.604V9.26074H38.2153V22.5176H36.604V17.5078H33.623C33.0444 18.8262 32.0044 19.5879 30.73 19.5879C28.7378 19.5879 27.3242 17.7788 27.3315 14.9004C27.3242 12.0439 28.7378 10.2275 30.73 10.2275ZM28.8989 14.9004C28.8916 16.9365 29.6387 18.1157 30.73 18.123C31.8286 18.1157 32.5684 16.9365 32.5757 14.9004C32.5684 12.8789 31.8286 11.6924 30.73 11.6924C29.6387 11.6924 28.8916 12.8789 28.8989 14.9004ZM33.9673 13.3916C34.0625 13.853 34.1138 14.3584 34.1138 14.9004C34.1138 15.3545 34.0771 15.7866 34.0039 16.1895H36.604V13.3916H33.9673ZM48.4106 10.0957L44.9976 22.7959H43.3569L46.7847 10.0957H48.4106ZM64.6411 15.9258V17.2295H52.5708V15.9258H57.771V14.6514H54.1382V9.58301H55.7495V10.9014H61.4624V9.58301H63.0737V14.6514H59.4116V15.9258H64.6411ZM53.9038 19.5732V18.2842H63.1616V22.5029H61.5356V19.5732H53.9038ZM55.7495 13.3477H61.4624V12.1172H55.7495V13.3477ZM76.5649 9.26074V22.5176H74.9536V9.26074H76.5649ZM66.2524 11.7363V10.418H72.4927V15.3838H67.937V18.0498C70.0244 18.0352 71.8188 17.9253 73.8843 17.5811L74.0308 18.9141C71.7822 19.3022 69.8047 19.3901 67.4243 19.3828H66.2671V14.0947H70.8374V11.7363H66.2524ZM89.9097 10.6816V12H79.0991V10.6816H83.7134V9.23145H85.3247V10.6816H89.9097ZM78.4985 19.1484V17.8154H90.5981V19.1484H85.3247V22.5176H83.7134V19.1484H78.4985ZM80.0366 14.8418C80.0366 13.3916 81.7212 12.6006 84.519 12.6006C87.3169 12.6006 89.0015 13.3916 89.0015 14.8418C89.0015 16.2847 87.3169 17.083 84.519 17.083C81.7212 17.083 80.0366 16.2847 80.0366 14.8418ZM81.7358 14.8418C81.7285 15.5229 82.688 15.8745 84.519 15.8672C86.3428 15.8745 87.3096 15.5229 87.3169 14.8418C87.3096 14.168 86.3428 13.8164 84.519 13.8164C82.688 13.8164 81.7285 14.168 81.7358 14.8418ZM95.5933 11.7217C95.6006 13.1499 96.4355 14.5928 98.1714 15.252L97.3071 16.4971C96.1279 16.0503 95.3076 15.2007 94.8315 14.1753C94.3481 15.3545 93.4839 16.3652 92.2241 16.8926L91.3452 15.6475C93.1689 14.8418 94.0186 13.1865 94.0259 11.7217V10.0811H95.5933V11.7217ZM93.7769 20.042C93.7695 18.5186 95.5273 17.6104 98.3179 17.6104C101.086 17.6104 102.852 18.5186 102.859 20.042C102.852 21.5728 101.086 22.4883 98.3179 22.4883C95.5273 22.4883 93.7695 21.5728 93.7769 20.042ZM95.4028 20.042C95.3955 20.8257 96.4795 21.2505 98.3179 21.2432C100.127 21.2505 101.211 20.8257 101.218 20.042C101.211 19.2656 100.127 18.8408 98.3179 18.8408C96.4795 18.8408 95.3955 19.2656 95.4028 20.042ZM98.3911 16.9805V9.52441H99.9146V12.6152H101.233V9.27539H102.786V17.3906H101.233V13.9482H99.9146V16.9805H98.3911Z" fill="#F59E0B"/>
</svg>
