<svg width="88" height="32" viewBox="0 0 88 32" fill="none" xmlns="http://www.w3.org/2000/svg">
<rect width="88" height="32" rx="16" fill="#FFDEEE"/>
<path d="M21.1709 12.2402C21.1562 14.606 22.3428 16.9937 24.3936 17.9824L23.3975 19.2861C21.9619 18.561 20.9292 17.1621 20.3652 15.4775C19.7866 17.2793 18.7026 18.7734 17.1865 19.5352L16.1904 18.2314C18.3218 17.2207 19.5376 14.6865 19.5449 12.2402V10.1309H21.1709V12.2402ZM25.1846 22.3037V9.06152H26.8105V14.2471H28.8467V15.6387H26.8105V22.3037H25.1846ZM40.7705 9.06152V22.3037H39.2031V15.6094H37.7383V21.6299H36.2148V9.31055H37.7383V14.2764H39.2031V9.06152H40.7705ZM29.9746 19.0078V10.585H31.6152V17.5723C32.7578 17.5503 34.0029 17.4478 35.3945 17.1768L35.5557 18.5977C33.7686 18.9126 32.2524 19.0078 30.8535 19.0078H29.9746ZM56.4004 9.83789V10.7607C56.3931 11.9033 56.3931 13.4194 56.0269 15.5654H57.9971V16.8838H55.0088V22.2891H53.3975V16.8838H50.4385V22.2891H48.7979V16.8838H45.9268V15.5654H54.3862C54.7524 13.6758 54.7964 12.2549 54.8037 11.1709H47.4062V9.83789H56.4004ZM69.9795 9.06152V16.9277H68.3535V13.6904H66.0977V12.3574H68.3535V9.06152H69.9795ZM58.8467 15.6094C60.978 14.877 62.0986 13.0972 62.0986 11.3467V11.2441H59.3447V9.92578H66.4932V11.2441H63.7539V11.332C63.7539 12.9434 64.8232 14.5693 66.874 15.2578L66.0537 16.5469C64.5815 16.0488 63.5415 15.0381 62.9556 13.793C62.377 15.1992 61.271 16.3418 59.6963 16.8984L58.8467 15.6094ZM61 19.7842C60.9854 18.1948 62.7065 17.2646 65.4971 17.2646C68.3022 17.2646 70.0161 18.1948 70.0234 19.7842C70.0161 21.3735 68.3022 22.2964 65.4971 22.3037C62.7065 22.2964 60.9854 21.3735 61 19.7842ZM62.6113 19.7842C62.604 20.6045 63.6587 21.0513 65.4971 21.0439C67.3501 21.0513 68.3975 20.6045 68.3975 19.7842C68.3975 18.9565 67.3501 18.5098 65.4971 18.5098C63.6587 18.5098 62.604 18.9565 62.6113 19.7842Z" fill="#EC4899"/>
</svg>
