<svg width="123" height="32" viewBox="0 0 123 32" fill="none" xmlns="http://www.w3.org/2000/svg">
<rect width="123" height="32" rx="16" fill="#FFEED0"/>
<path d="M19.5303 16.6055V18.1289H25.4043V16.6055H27.0156V22.1426H17.9336V16.6055H19.5303ZM16.4395 15.624V14.3203H25.126C25.4043 12.9214 25.4336 11.8667 25.4336 10.9365H17.9336V9.63281H27.0596V10.6582C27.0669 11.6689 27.0669 12.7676 26.7373 14.3203H28.5391V15.624H16.4395ZM19.5303 20.8242H25.4043V19.3887H19.5303V20.8242ZM33.0215 10.0283C34.2153 10.0283 35.2041 10.6948 35.7974 11.8594H38.8955V9.06152H40.5068V22.3184H38.8955V17.3086H35.9146C35.3359 18.627 34.2959 19.3887 33.0215 19.3887C31.0293 19.3887 29.6157 17.5796 29.623 14.7012C29.6157 11.8447 31.0293 10.0283 33.0215 10.0283ZM31.1904 14.7012C31.1831 16.7373 31.9302 17.9165 33.0215 17.9238C34.1201 17.9165 34.8599 16.7373 34.8672 14.7012C34.8599 12.6797 34.1201 11.4932 33.0215 11.4932C31.9302 11.4932 31.1831 12.6797 31.1904 14.7012ZM36.2588 13.1924C36.354 13.6538 36.4053 14.1592 36.4053 14.7012C36.4053 15.1553 36.3687 15.5874 36.2954 15.9902H38.8955V13.1924H36.2588ZM50.7021 9.89648L47.2891 22.5967H45.6484L49.0762 9.89648H50.7021ZM66.9326 15.7266V17.0303H54.8623V15.7266H60.0625V14.4521H56.4297V9.38379H58.041V10.7021H63.7539V9.38379H65.3652V14.4521H61.7031V15.7266H66.9326ZM56.1953 19.374V18.085H65.4531V22.3037H63.8271V19.374H56.1953ZM58.041 13.1484H63.7539V11.918H58.041V13.1484ZM78.8564 9.06152V22.3184H77.2451V9.06152H78.8564ZM68.5439 11.5371V10.2188H74.7842V15.1846H70.2285V17.8506C72.3159 17.8359 74.1104 17.7261 76.1758 17.3818L76.3223 18.7148C74.0737 19.103 72.0962 19.1909 69.7158 19.1836H68.5586V13.8955H73.1289V11.5371H68.5439ZM92.2012 10.4824V11.8008H81.3906V10.4824H86.0049V9.03223H87.6162V10.4824H92.2012ZM80.79 18.9492V17.6162H92.8896V18.9492H87.6162V22.3184H86.0049V18.9492H80.79ZM82.3281 14.6426C82.3281 13.1924 84.0127 12.4014 86.8105 12.4014C89.6084 12.4014 91.293 13.1924 91.293 14.6426C91.293 16.0854 89.6084 16.8838 86.8105 16.8838C84.0127 16.8838 82.3281 16.0854 82.3281 14.6426ZM84.0273 14.6426C84.02 15.3237 84.9795 15.6753 86.8105 15.668C88.6343 15.6753 89.6011 15.3237 89.6084 14.6426C89.6011 13.9688 88.6343 13.6172 86.8105 13.6172C84.9795 13.6172 84.02 13.9688 84.0273 14.6426ZM97.8848 11.5225C97.8921 12.9507 98.7271 14.3936 100.463 15.0527L99.5986 16.2979C98.4194 15.8511 97.5991 15.0015 97.123 13.9761C96.6396 15.1553 95.7754 16.166 94.5156 16.6934L93.6367 15.4482C95.4604 14.6426 96.3101 12.9873 96.3174 11.5225V9.88184H97.8848V11.5225ZM96.0684 19.8428C96.061 18.3193 97.8188 17.4111 100.609 17.4111C103.378 17.4111 105.143 18.3193 105.15 19.8428C105.143 21.3735 103.378 22.2891 100.609 22.2891C97.8188 22.2891 96.061 21.3735 96.0684 19.8428ZM97.6943 19.8428C97.687 20.6265 98.771 21.0513 100.609 21.0439C102.418 21.0513 103.502 20.6265 103.51 19.8428C103.502 19.0664 102.418 18.6416 100.609 18.6416C98.771 18.6416 97.687 19.0664 97.6943 19.8428ZM100.683 16.7812V9.3252H102.206V12.416H103.524V9.07617H105.077V17.1914H103.524V13.749H102.206V16.7812H100.683Z" fill="#F59E0B"/>
</svg>
