<svg width="98" height="32" viewBox="0 0 98 32" fill="none" xmlns="http://www.w3.org/2000/svg">
<rect x="0.339355" width="97.5688" height="31.5" rx="15.75" fill="#FFDEEE"/>
<path d="M26.2944 11.9902C26.2798 14.356 27.4663 16.7437 29.5171 17.7324L28.521 19.0361C27.0854 18.311 26.0527 16.9121 25.4888 15.2275C24.9102 17.0293 23.8262 18.5234 22.3101 19.2852L21.314 17.9814C23.4453 16.9707 24.6611 14.4365 24.6685 11.9902V9.88086H26.2944V11.9902ZM30.3081 22.0537V8.81152H31.9341V13.9971H33.9702V15.3887H31.9341V22.0537H30.3081ZM45.894 8.81152V22.0537H44.3267V15.3594H42.8618V21.3799H41.3384V9.06055H42.8618V14.0264H44.3267V8.81152H45.894ZM35.0981 18.7578V10.335H36.7388V17.3223C37.8813 17.3003 39.1265 17.1978 40.5181 16.9268L40.6792 18.3477C38.8921 18.6626 37.376 18.7578 35.9771 18.7578H35.0981ZM61.5239 9.58789V10.5107C61.5166 11.6533 61.5166 13.1694 61.1504 15.3154H63.1206V16.6338H60.1323V22.0391H58.521V16.6338H55.562V22.0391H53.9214V16.6338H51.0503V15.3154H59.5098C59.876 13.4258 59.9199 12.0049 59.9272 10.9209H52.5298V9.58789H61.5239ZM75.103 8.81152V16.6777H73.4771V13.4404H71.2212V12.1074H73.4771V8.81152H75.103ZM63.9702 15.3594C66.1016 14.627 67.2222 12.8472 67.2222 11.0967V10.9941H64.4683V9.67578H71.6167V10.9941H68.8774V11.082C68.8774 12.6934 69.9468 14.3193 71.9976 15.0078L71.1772 16.2969C69.7051 15.7988 68.665 14.7881 68.0791 13.543C67.5005 14.9492 66.3945 16.0918 64.8198 16.6484L63.9702 15.3594ZM66.1235 19.5342C66.1089 17.9448 67.8301 17.0146 70.6206 17.0146C73.4258 17.0146 75.1396 17.9448 75.147 19.5342C75.1396 21.1235 73.4258 22.0464 70.6206 22.0537C67.8301 22.0464 66.1089 21.1235 66.1235 19.5342ZM67.7349 19.5342C67.7275 20.3545 68.7822 20.8013 70.6206 20.7939C72.4736 20.8013 73.521 20.3545 73.521 19.5342C73.521 18.7065 72.4736 18.2598 70.6206 18.2598C68.7822 18.2598 67.7275 18.7065 67.7349 19.5342Z" fill="#EC4899"/>
</svg>
