<svg width="98" height="32" viewBox="0 0 98 32" fill="none" xmlns="http://www.w3.org/2000/svg">
<rect x="0.0444336" width="97.5" height="31.5" rx="15.75" fill="#D4E4FF"/>
<path d="M19.1802 10.1445V20.75H17.2759V10.1445H19.1802ZM20.689 11.7412V10.1445H29.1411V11.7412H25.8745V20.75H23.9702V11.7412H20.689ZM38.4282 9.64648L35.0151 22.3467H33.3745L36.8022 9.64648H38.4282ZM47.5981 11.9902C47.5835 14.4219 48.8652 16.8535 51.0112 17.7764L50.0444 19.0801C48.521 18.377 47.4077 16.978 46.7925 15.2495C46.1846 17.1099 45.042 18.6333 43.438 19.3877L42.4419 18.0254C44.6465 17.0732 45.9355 14.5464 45.9429 11.9902V9.88086H47.5981V11.9902ZM51.9634 22.0684V8.81152H53.604V22.0684H51.9634ZM62.3931 10.6279C62.3931 12.6714 64.3926 14.7295 67.1685 15.2129L66.436 16.5752C64.2168 16.1138 62.4004 14.7661 61.5361 12.9863C60.6646 14.7515 58.8481 16.1064 56.6362 16.5752L55.9185 15.2129C58.6504 14.7148 60.6572 12.6641 60.6646 10.6279V9.64648H62.3931V10.6279ZM55.5522 20.3691V19.0215H67.6519V20.3691H55.5522ZM74.1118 9.63184V10.9502H70.6401V12.1953H73.6138V13.4551H70.6401V14.8174C72.2222 14.8027 73.3208 14.7368 74.6099 14.5098L74.7856 15.7842C73.2549 16.0625 71.9951 16.1211 69.9517 16.1211H69.0728V9.63184H74.1118ZM70.9038 21.8926V17.293H79.8394V21.8926H70.9038ZM72.5298 20.5742H78.228V18.582H72.5298V20.5742ZM74.1851 13.3672V12.0488H75.6792V9.03125H77.2319V16.6338H75.6792V13.3672H74.1851ZM78.2866 16.7363V8.81152H79.8394V16.7363H78.2866Z" fill="#3B82F6"/>
</svg>
