<svg width="95" height="32" viewBox="0 0 95 32" fill="none" xmlns="http://www.w3.org/2000/svg">
<rect width="95" height="32" rx="16" fill="#D4E4FF"/>
<path d="M17.8857 10.3945V21H15.9814V10.3945H17.8857ZM19.3945 11.9912V10.3945H27.8467V11.9912H24.5801V21H22.6758V11.9912H19.3945ZM37.1338 9.89648L33.7207 22.5967H32.0801L35.5078 9.89648H37.1338ZM46.3037 12.2402C46.2891 14.6719 47.5708 17.1035 49.7168 18.0264L48.75 19.3301C47.2266 18.627 46.1133 17.228 45.498 15.4995C44.8901 17.3599 43.7476 18.8833 42.1436 19.6377L41.1475 18.2754C43.3521 17.3232 44.6411 14.7964 44.6484 12.2402V10.1309H46.3037V12.2402ZM50.6689 22.3184V9.06152H52.3096V22.3184H50.6689ZM61.0986 10.8779C61.0986 12.9214 63.0981 14.9795 65.874 15.4629L65.1416 16.8252C62.9224 16.3638 61.106 15.0161 60.2417 13.2363C59.3701 15.0015 57.5537 16.3564 55.3418 16.8252L54.624 15.4629C57.356 14.9648 59.3628 12.9141 59.3701 10.8779V9.89648H61.0986V10.8779ZM54.2578 20.6191V19.2715H66.3574V20.6191H54.2578ZM72.8174 9.88184V11.2002H69.3457V12.4453H72.3193V13.7051H69.3457V15.0674C70.9277 15.0527 72.0264 14.9868 73.3154 14.7598L73.4912 16.0342C71.9604 16.3125 70.7007 16.3711 68.6572 16.3711H67.7783V9.88184H72.8174ZM69.6094 22.1426V17.543H78.5449V22.1426H69.6094ZM71.2354 20.8242H76.9336V18.832H71.2354V20.8242ZM72.8906 13.6172V12.2988H74.3848V9.28125H75.9375V16.8838H74.3848V13.6172H72.8906ZM76.9922 16.9863V9.06152H78.5449V16.9863H76.9922Z" fill="#3B82F6"/>
</svg>
