<svg width="97" height="32" viewBox="0 0 97 32" fill="none" xmlns="http://www.w3.org/2000/svg">
<rect width="97" height="32" rx="16" fill="#D5FFE4"/>
<path d="M27.0596 9.82324V10.9219C27.0669 12.0352 27.0669 13.3169 26.7593 14.9941H28.5391V16.3271H16.4395V14.9941H25.104C25.4116 13.3975 25.4336 12.2183 25.4336 11.1416H17.9336V9.82324H27.0596ZM18.0068 22.0254V17.5869H19.6182V20.707H27.4404V22.0254H18.0068ZM41.4883 16.5615V17.8799H36.2148V22.2891H34.6035V17.8799H29.3887V16.5615H41.4883ZM30.8682 15.0088V9.73535H40.0088V15.0088H30.8682ZM32.4648 13.7344H38.3828V11.0391H32.4648V13.7344ZM50.7021 9.89648L47.2891 22.5967H45.6484L49.0762 9.89648H50.7021ZM65.4824 9.82324V10.9219C65.4897 12.0352 65.4897 13.3169 65.1821 14.9941H66.9619V16.3271H54.8623V14.9941H63.5269C63.8345 13.3975 63.8564 12.2183 63.8564 11.1416H56.3564V9.82324H65.4824ZM56.4297 22.0254V17.5869H58.041V20.707H65.8633V22.0254H56.4297ZM73.6416 10.4971V11.8008H69.8623V13.9688H73.4072V15.2432H69.8623V17.8213C71.5029 17.8066 72.6382 17.748 73.9785 17.543L74.1104 18.876C72.5649 19.1396 71.2686 19.1909 69.2031 19.1836H68.3096V10.4971H73.6416ZM74.7842 21.6592V9.2959H76.3223V14.2617H77.6846V9.06152H79.252V22.3037H77.6846V15.5801H76.3223V21.6592H74.7842Z" fill="#22C55E"/>
</svg>
