<svg width="57" height="27" viewBox="0 0 57 27" fill="none" xmlns="http://www.w3.org/2000/svg">
<rect x="0.75" y="0.375" width="56.25" height="26.25" rx="13.125" fill="#E6F4EA"/>
<path d="M26.6777 6.93652V10.1592H28.4648V11.5215H26.6777V14.7295H25.0518V6.93652H26.6777ZM16.0723 13.3965C17.0684 13.3965 18.2183 13.3965 19.4121 13.3672V12.7007C17.9253 12.5469 17.0024 11.939 17.0098 10.9648C17.0024 9.89551 18.2622 9.26562 20.2031 9.26562C22.144 9.26562 23.3965 9.89551 23.3965 10.9648C23.3965 11.9243 22.4956 12.5396 21.0381 12.6934V13.3086C22.166 13.25 23.3013 13.1621 24.3633 13.0156L24.4951 14.041C21.6606 14.5171 18.5552 14.5391 16.248 14.5391L16.0723 13.3965ZM16.4092 8.94336V7.83008H19.4121V6.83398H21.0381V7.83008H24.0117V8.94336H16.4092ZM17.8301 16.3555V15.2568H26.6777V18.1133H19.4854V18.9629H27.1465V20.0615H17.8594V17.1025H25.0518V16.3555H17.8301ZM18.5771 10.9648C18.5625 11.4409 19.1777 11.6973 20.2031 11.6973C21.2285 11.6973 21.8438 11.4409 21.8438 10.9648C21.8438 10.5254 21.2285 10.2983 20.2031 10.291C19.1777 10.2983 18.5625 10.5254 18.5771 10.9648ZM34.002 8.84082C33.9946 10.6426 35.0493 12.2905 37.1221 12.9424L36.2432 14.2168C34.8003 13.7041 33.7896 12.7373 33.2256 11.4849C32.6396 12.9277 31.5337 14.063 29.9297 14.627L29.0654 13.3086C31.2554 12.5908 32.354 10.8257 32.3613 8.91406V7.6543H34.002V8.84082ZM31.2627 17.6299C31.248 16.0186 32.9692 15.0737 35.7598 15.0811C38.5649 15.0737 40.2788 16.0186 40.2861 17.6299C40.2788 19.2412 38.5649 20.1641 35.7598 20.1641C32.9692 20.1641 31.248 19.2412 31.2627 17.6299ZM32.874 17.6299C32.8667 18.4355 33.9214 18.8823 35.7598 18.8896C37.6128 18.8823 38.6602 18.4355 38.6602 17.6299C38.6602 16.7949 37.6128 16.3481 35.7598 16.3408C33.9214 16.3481 32.8667 16.7949 32.874 17.6299ZM35.9795 10.833V9.5H38.6162V6.93652H40.2422V14.7295H38.6162V10.833H35.9795Z" fill="#218C5A"/>
</svg>
