<svg width="58" height="32" viewBox="0 0 58 32" fill="none" xmlns="http://www.w3.org/2000/svg">
<rect width="58" height="32" rx="16" fill="#E6F4EA"/>
<path d="M26.9277 9.06152V12.2842H28.7148V13.6465H26.9277V16.8545H25.3018V9.06152H26.9277ZM16.3223 15.5215C17.3184 15.5215 18.4683 15.5215 19.6621 15.4922V14.8257C18.1753 14.6719 17.2524 14.064 17.2598 13.0898C17.2524 12.0205 18.5122 11.3906 20.4531 11.3906C22.394 11.3906 23.6465 12.0205 23.6465 13.0898C23.6465 14.0493 22.7456 14.6646 21.2881 14.8184V15.4336C22.416 15.375 23.5513 15.2871 24.6133 15.1406L24.7451 16.166C21.9106 16.6421 18.8052 16.6641 16.498 16.6641L16.3223 15.5215ZM16.6592 11.0684V9.95508H19.6621V8.95898H21.2881V9.95508H24.2617V11.0684H16.6592ZM18.0801 18.4805V17.3818H26.9277V20.2383H19.7354V21.0879H27.3965V22.1865H18.1094V19.2275H25.3018V18.4805H18.0801ZM18.8271 13.0898C18.8125 13.5659 19.4277 13.8223 20.4531 13.8223C21.4785 13.8223 22.0938 13.5659 22.0938 13.0898C22.0938 12.6504 21.4785 12.4233 20.4531 12.416C19.4277 12.4233 18.8125 12.6504 18.8271 13.0898ZM34.252 10.9658C34.2446 12.7676 35.2993 14.4155 37.3721 15.0674L36.4932 16.3418C35.0503 15.8291 34.0396 14.8623 33.4756 13.6099C32.8896 15.0527 31.7837 16.188 30.1797 16.752L29.3154 15.4336C31.5054 14.7158 32.604 12.9507 32.6113 11.0391V9.7793H34.252V10.9658ZM31.5127 19.7549C31.498 18.1436 33.2192 17.1987 36.0098 17.2061C38.8149 17.1987 40.5288 18.1436 40.5361 19.7549C40.5288 21.3662 38.8149 22.2891 36.0098 22.2891C33.2192 22.2891 31.498 21.3662 31.5127 19.7549ZM33.124 19.7549C33.1167 20.5605 34.1714 21.0073 36.0098 21.0146C37.8628 21.0073 38.9102 20.5605 38.9102 19.7549C38.9102 18.9199 37.8628 18.4731 36.0098 18.4658C34.1714 18.4731 33.1167 18.9199 33.124 19.7549ZM36.2295 12.958V11.625H38.8662V9.06152H40.4922V16.8545H38.8662V12.958H36.2295Z" fill="#218C5A"/>
</svg>
