<svg width="69" height="32" viewBox="0 0 69 32" fill="none" xmlns="http://www.w3.org/2000/svg">
<rect width="69" height="32" rx="16" fill="#F2F2F2"/>
<path d="M26.4551 9.06152V22.3184H24.8145V9.06152H26.4551ZM16.1426 19.1982V10.1455H17.7686V13.4561H20.9766V10.1455H22.5879V19.1982H16.1426ZM17.7686 17.8652H20.9766V14.7305H17.7686V17.8652ZM38.8916 9.06152V12.2842H40.6787V13.6465H38.8916V16.8545H37.2656V9.06152H38.8916ZM28.2861 15.5215C29.2822 15.5215 30.4321 15.5215 31.626 15.4922V14.8257C30.1392 14.6719 29.2163 14.064 29.2236 13.0898C29.2163 12.0205 30.4761 11.3906 32.417 11.3906C34.3579 11.3906 35.6104 12.0205 35.6104 13.0898C35.6104 14.0493 34.7095 14.6646 33.252 14.8184V15.4336C34.3799 15.375 35.5151 15.2871 36.5771 15.1406L36.709 16.166C33.8745 16.6421 30.769 16.6641 28.4619 16.6641L28.2861 15.5215ZM28.623 11.0684V9.95508H31.626V8.95898H33.252V9.95508H36.2256V11.0684H28.623ZM30.0439 18.4805V17.3818H38.8916V20.2383H31.6992V21.0879H39.3604V22.1865H30.0732V19.2275H37.2656V18.4805H30.0439ZM30.791 13.0898C30.7764 13.5659 31.3916 13.8223 32.417 13.8223C33.4424 13.8223 34.0576 13.5659 34.0576 13.0898C34.0576 12.6504 33.4424 12.4233 32.417 12.416C31.3916 12.4233 30.7764 12.6504 30.791 13.0898ZM46.2158 10.9658C46.2085 12.7676 47.2632 14.4155 49.3359 15.0674L48.457 16.3418C47.0142 15.8291 46.0034 14.8623 45.4395 13.6099C44.8535 15.0527 43.7476 16.188 42.1436 16.752L41.2793 15.4336C43.4692 14.7158 44.5679 12.9507 44.5752 11.0391V9.7793H46.2158V10.9658ZM43.4766 19.7549C43.4619 18.1436 45.1831 17.1987 47.9736 17.2061C50.7788 17.1987 52.4927 18.1436 52.5 19.7549C52.4927 21.3662 50.7788 22.2891 47.9736 22.2891C45.1831 22.2891 43.4619 21.3662 43.4766 19.7549ZM45.0879 19.7549C45.0806 20.5605 46.1353 21.0073 47.9736 21.0146C49.8267 21.0073 50.874 20.5605 50.874 19.7549C50.874 18.9199 49.8267 18.4731 47.9736 18.4658C46.1353 18.4731 45.0806 18.9199 45.0879 19.7549ZM48.1934 12.958V11.625H50.8301V9.06152H52.4561V16.8545H50.8301V12.958H48.1934Z" fill="#C2C2C2"/>
</svg>
