<svg width="60" height="27" viewBox="0 0 60 27" fill="none" xmlns="http://www.w3.org/2000/svg">
<rect y="0.125" width="60" height="26.25" rx="13.125" fill="#F2F2F2"/>
<path d="M21.9551 6.68652V19.9434H20.3145V6.68652H21.9551ZM11.6426 16.8232V7.77051H13.2686V11.0811H16.4766V7.77051H18.0879V16.8232H11.6426ZM13.2686 15.4902H16.4766V12.3555H13.2686V15.4902ZM34.3916 6.68652V9.90918H36.1787V11.2715H34.3916V14.4795H32.7656V6.68652H34.3916ZM23.7861 13.1465C24.7822 13.1465 25.9321 13.1465 27.126 13.1172V12.4507C25.6392 12.2969 24.7163 11.689 24.7236 10.7148C24.7163 9.64551 25.9761 9.01562 27.917 9.01562C29.8579 9.01562 31.1104 9.64551 31.1104 10.7148C31.1104 11.6743 30.2095 12.2896 28.752 12.4434V13.0586C29.8799 13 31.0151 12.9121 32.0771 12.7656L32.209 13.791C29.3745 14.2671 26.269 14.2891 23.9619 14.2891L23.7861 13.1465ZM24.123 8.69336V7.58008H27.126V6.58398H28.752V7.58008H31.7256V8.69336H24.123ZM25.5439 16.1055V15.0068H34.3916V17.8633H27.1992V18.7129H34.8604V19.8115H25.5732V16.8525H32.7656V16.1055H25.5439ZM26.291 10.7148C26.2764 11.1909 26.8916 11.4473 27.917 11.4473C28.9424 11.4473 29.5576 11.1909 29.5576 10.7148C29.5576 10.2754 28.9424 10.0483 27.917 10.041C26.8916 10.0483 26.2764 10.2754 26.291 10.7148ZM41.7158 8.59082C41.7085 10.3926 42.7632 12.0405 44.8359 12.6924L43.957 13.9668C42.5142 13.4541 41.5034 12.4873 40.9395 11.2349C40.3535 12.6777 39.2476 13.813 37.6436 14.377L36.7793 13.0586C38.9692 12.3408 40.0679 10.5757 40.0752 8.66406V7.4043H41.7158V8.59082ZM38.9766 17.3799C38.9619 15.7686 40.6831 14.8237 43.4736 14.8311C46.2788 14.8237 47.9927 15.7686 48 17.3799C47.9927 18.9912 46.2788 19.9141 43.4736 19.9141C40.6831 19.9141 38.9619 18.9912 38.9766 17.3799ZM40.5879 17.3799C40.5806 18.1855 41.6353 18.6323 43.4736 18.6396C45.3267 18.6323 46.374 18.1855 46.374 17.3799C46.374 16.5449 45.3267 16.0981 43.4736 16.0908C41.6353 16.0981 40.5806 16.5449 40.5879 17.3799ZM43.6934 10.583V9.25H46.3301V6.68652H47.9561V14.4795H46.3301V10.583H43.6934Z" fill="#C2C2C2"/>
</svg>
