<svg width="75" height="42" viewBox="0 0 75 42" fill="none" xmlns="http://www.w3.org/2000/svg">
<rect width="75" height="42" rx="21" fill="#E6F4EA"/>
<path d="M34.5703 12.082V16.3789H36.9531V18.1953H34.5703V22.4727H32.4023V12.082H34.5703ZM34.5703 23.1758V26.9844H24.9805V28.1172H35.1953V29.582H22.8125V25.6367H32.4023V24.6406H22.7734V23.1758H34.5703ZM20.4297 20.6953C21.7578 20.6953 23.2812 20.6953 24.8828 20.6367V19.7578C22.9004 19.5625 21.6797 18.7617 21.6797 17.4531C21.6797 16.0273 23.3398 15.1875 25.9375 15.1875C28.5352 15.1875 30.1953 16.0273 30.1953 17.4531C30.1953 18.7422 29.0039 19.543 27.0508 19.7578V20.5586C28.5547 20.5 30.0684 20.373 31.4844 20.1875L31.6602 21.5547C27.8906 22.1992 23.75 22.2188 20.6641 22.2188L20.4297 20.6953ZM31.0156 13.2734V14.7578H20.8789V13.2734H24.8828V11.9453H27.0508V13.2734H31.0156ZM25.9375 16.5547C24.5703 16.5742 23.75 16.8672 23.7695 17.4531C23.75 18.0781 24.5703 18.4297 25.9375 18.4297C27.3047 18.4297 28.125 18.0781 28.125 17.4531C28.125 16.8672 27.3047 16.5742 25.9375 16.5547ZM44.3359 14.6211C44.3164 17.0234 45.7227 19.2109 48.4961 20.0898L47.3242 21.7891C45.4004 21.1152 44.0527 19.8359 43.3008 18.1562C42.5195 20.0801 41.0449 21.5938 38.9062 22.3359L37.7539 20.5781C40.6836 19.6211 42.1484 17.2578 42.1484 14.7188V13.0391H44.3359V14.6211ZM52.6562 12.082V22.4727H50.4883V17.2773H46.9727V15.5H50.4883V12.082H52.6562ZM46.6797 22.9414C50.4297 22.9414 52.7148 24.1914 52.7148 26.3398C52.7148 28.4883 50.4297 29.7188 46.6797 29.7188C42.9492 29.7188 40.6641 28.4883 40.6836 26.3398C40.6641 24.1914 42.9492 22.9414 46.6797 22.9414ZM46.6797 24.6211C44.2188 24.6211 42.832 25.2266 42.832 26.3398C42.832 27.4141 44.2188 28.0195 46.6797 28.0195C49.1406 28.0195 50.5469 27.4141 50.5469 26.3398C50.5469 25.2266 49.1406 24.6211 46.6797 24.6211Z" fill="#218C5A"/>
</svg>
