<svg width="52" height="52" viewBox="0 0 52 52" fill="none" xmlns="http://www.w3.org/2000/svg">
<rect width="52" height="52" rx="8" fill="#FF0004"/>
<path d="M28.1836 14.9375V16.4961C28.1836 18.2188 28.1836 20.707 27.6094 23.7969L24.1914 23.4688C24.6289 21.0762 24.7383 19.2715 24.7656 17.7812H15.3867V14.9375H28.1836ZM22.0039 20.6797V25.4375C24.4785 25.3418 27.0215 25.1504 29.3594 24.8086L29.5508 27.3242C24.3828 28.2812 18.5312 28.3633 14.2109 28.3906L13.9102 25.6016C15.3047 25.6016 16.877 25.6016 18.5312 25.5469V20.6797H22.0039ZM34.2812 13.1328V20.707H37.2891V23.6328H34.2812V31.7539H30.6992V13.1328H34.2812ZM35.0469 34.7891V37.5781H17.5742V30.0859H21.0742V34.7891H35.0469Z" fill="white"/>
</svg>
