<svg width="52" height="52" viewBox="0 0 52 52" fill="none" xmlns="http://www.w3.org/2000/svg">
<rect width="52" height="52" rx="8" fill="#FF9D00"/>
<path d="M35.2109 13.1328V31.4531H31.7383V25.3281H28.5664V22.457H31.7383V20.2969H28.5664V17.5078H31.7383V13.1328H35.2109ZM28.1289 14.9102V17.6992H26.0781V25.2461C26.9121 25.1914 27.7324 25.1094 28.5117 25.0273L28.6484 27.5703C24 28.3359 18.5312 28.4453 14.5938 28.4453L14.2383 25.6016L16.8906 25.5742V17.6992H14.8672V14.9102H28.1289ZM35.8125 34.7891V37.5781H18.668V30.0859H22.168V34.7891H35.8125ZM20.2539 25.5195L22.7422 25.4375V17.6992H20.2539V25.5195Z" fill="white"/>
</svg>
